<?xml version="1.0" encoding="UTF-8"?>
<svg xmlns="http://www.w3.org/2000/svg" xmlns:xlink="http://www.w3.org/1999/xlink" width="37.5pt" height="37.499999pt" viewBox="0 0 37.5 37.499999" version="1.2">
<defs>
<clipPath id="clip1">
  <path d="M 0.675781 0.675781 L 36.535156 0.675781 L 36.535156 36.535156 L 0.675781 36.535156 Z M 0.675781 0.675781 "/>
</clipPath>
<clipPath id="clip2">
  <path d="M 0.675781 0.675781 L 36.535156 0.675781 L 36.535156 36.535156 L 0.675781 36.535156 Z M 0.675781 0.675781 "/>
</clipPath>
</defs>
<g id="surface1">
<g clip-path="url(#clip1)" clip-rule="nonzero">
<path style=" stroke:none;fill-rule:nonzero;fill:rgb(67.449951%,85.099792%,91.758728%);fill-opacity:1;" d="M 36.25 18.605469 C 36.25 19.183594 36.222656 19.757812 36.164062 20.335938 C 36.109375 20.910156 36.023438 21.480469 35.910156 22.046875 C 35.796875 22.613281 35.65625 23.171875 35.488281 23.726562 C 35.324219 24.28125 35.128906 24.824219 34.90625 25.355469 C 34.6875 25.890625 34.4375 26.414062 34.167969 26.921875 C 33.894531 27.433594 33.597656 27.925781 33.277344 28.40625 C 32.957031 28.886719 32.613281 29.351562 32.246094 29.796875 C 31.878906 30.246094 31.492188 30.671875 31.082031 31.082031 C 30.671875 31.488281 30.246094 31.878906 29.800781 32.246094 C 29.351562 32.609375 28.886719 32.953125 28.40625 33.277344 C 27.925781 33.597656 27.433594 33.894531 26.921875 34.167969 C 26.414062 34.4375 25.890625 34.683594 25.355469 34.90625 C 24.824219 35.128906 24.28125 35.320312 23.726562 35.488281 C 23.175781 35.65625 22.613281 35.796875 22.046875 35.910156 C 21.480469 36.023438 20.910156 36.109375 20.335938 36.164062 C 19.757812 36.222656 19.183594 36.25 18.605469 36.25 C 18.027344 36.25 17.449219 36.222656 16.875 36.164062 C 16.300781 36.109375 15.730469 36.023438 15.164062 35.910156 C 14.597656 35.796875 14.035156 35.65625 13.484375 35.488281 C 12.929688 35.320312 12.386719 35.128906 11.851562 34.90625 C 11.320312 34.683594 10.796875 34.4375 10.289062 34.167969 C 9.777344 33.894531 9.28125 33.597656 8.800781 33.277344 C 8.320312 32.953125 7.859375 32.609375 7.410156 32.246094 C 6.964844 31.878906 6.535156 31.488281 6.128906 31.082031 C 5.71875 30.671875 5.332031 30.246094 4.964844 29.796875 C 4.597656 29.351562 4.253906 28.886719 3.933594 28.40625 C 3.613281 27.925781 3.316406 27.433594 3.042969 26.921875 C 2.769531 26.414062 2.523438 25.890625 2.304688 25.355469 C 2.082031 24.824219 1.886719 24.28125 1.71875 23.726562 C 1.550781 23.171875 1.410156 22.613281 1.300781 22.046875 C 1.1875 21.480469 1.101562 20.910156 1.042969 20.335938 C 0.988281 19.757812 0.960938 19.183594 0.960938 18.605469 C 0.960938 18.027344 0.988281 17.449219 1.042969 16.875 C 1.101562 16.300781 1.1875 15.730469 1.300781 15.164062 C 1.410156 14.59375 1.550781 14.035156 1.71875 13.484375 C 1.886719 12.929688 2.082031 12.386719 2.304688 11.851562 C 2.523438 11.316406 2.769531 10.796875 3.042969 10.285156 C 3.316406 9.777344 3.613281 9.28125 3.933594 8.800781 C 4.253906 8.320312 4.597656 7.859375 4.964844 7.410156 C 5.332031 6.964844 5.71875 6.535156 6.128906 6.128906 C 6.535156 5.71875 6.964844 5.332031 7.410156 4.964844 C 7.859375 4.597656 8.320312 4.253906 8.800781 3.933594 C 9.28125 3.613281 9.777344 3.316406 10.289062 3.042969 C 10.796875 2.769531 11.320312 2.523438 11.851562 2.304688 C 12.386719 2.082031 12.929688 1.886719 13.484375 1.71875 C 14.035156 1.550781 14.597656 1.410156 15.164062 1.296875 C 15.730469 1.1875 16.300781 1.101562 16.875 1.042969 C 17.449219 0.988281 18.027344 0.960938 18.605469 0.960938 C 19.183594 0.960938 19.757812 0.988281 20.335938 1.042969 C 20.910156 1.101562 21.480469 1.1875 22.046875 1.296875 C 22.613281 1.410156 23.175781 1.550781 23.726562 1.71875 C 24.28125 1.886719 24.824219 2.082031 25.355469 2.304688 C 25.890625 2.523438 26.414062 2.769531 26.921875 3.042969 C 27.433594 3.316406 27.925781 3.613281 28.40625 3.933594 C 28.886719 4.253906 29.351562 4.597656 29.800781 4.964844 C 30.246094 5.332031 30.671875 5.71875 31.082031 6.128906 C 31.492188 6.535156 31.878906 6.964844 32.246094 7.410156 C 32.613281 7.859375 32.957031 8.320312 33.277344 8.800781 C 33.597656 9.28125 33.894531 9.777344 34.167969 10.285156 C 34.4375 10.796875 34.6875 11.316406 34.90625 11.851562 C 35.128906 12.386719 35.324219 12.929688 35.488281 13.484375 C 35.65625 14.035156 35.796875 14.59375 35.910156 15.164062 C 36.023438 15.730469 36.109375 16.300781 36.164062 16.875 C 36.222656 17.449219 36.25 18.027344 36.25 18.605469 Z M 36.25 18.605469 "/>
</g>
<path style=" stroke:none;fill-rule:nonzero;fill:rgb(95.689392%,93.728638%,93.728638%);fill-opacity:1;" d="M 18.605469 24.203125 C 17.832031 24.203125 17.1875 23.578125 17.1875 22.804688 L 17.1875 20.242188 C 17.1875 19.46875 17.824219 18.839844 18.597656 18.839844 C 20.585938 18.839844 22.210938 17.222656 22.210938 15.230469 C 22.210938 13.242188 20.59375 11.621094 18.601562 11.621094 C 16.613281 11.621094 14.996094 13.242188 14.996094 15.230469 C 14.996094 16.003906 14.367188 16.632812 13.59375 16.632812 C 12.820312 16.632812 12.195312 16.003906 12.195312 15.230469 C 12.195312 11.695312 15.070312 8.820312 18.605469 8.820312 C 22.140625 8.820312 25.023438 11.695312 25.023438 15.230469 C 25.023438 18.285156 23.136719 20.847656 20.019531 21.488281 L 20.019531 22.804688 C 20.019531 23.578125 19.378906 24.203125 18.605469 24.203125 Z M 18.605469 24.203125 "/>
<path style=" stroke:none;fill-rule:nonzero;fill:rgb(95.689392%,93.728638%,93.728638%);fill-opacity:1;" d="M 18.621094 28.6875 C 18.253906 28.6875 17.890625 28.535156 17.628906 28.273438 C 17.371094 28.015625 17.222656 27.65625 17.222656 27.285156 C 17.222656 26.914062 17.371094 26.554688 17.628906 26.292969 C 17.890625 26.03125 18.253906 25.882812 18.621094 25.882812 C 18.988281 25.882812 19.351562 26.03125 19.609375 26.292969 C 19.871094 26.554688 20.023438 26.914062 20.023438 27.285156 C 20.023438 27.652344 19.871094 28.011719 19.609375 28.273438 C 19.351562 28.535156 18.988281 28.6875 18.621094 28.6875 Z M 18.621094 28.6875 "/>
<g clip-path="url(#clip2)" clip-rule="nonzero">
<path style="fill:none;stroke-width:2;stroke-linecap:round;stroke-linejoin:round;stroke:rgb(19.999695%,19.999695%,19.999695%);stroke-opacity:1;stroke-miterlimit:10;" d="M 126.29412 64.001799 C 126.29412 66.042813 126.197586 68.070038 125.990726 70.111052 C 125.797657 72.138277 125.494263 74.15171 125.094335 76.151353 C 124.694406 78.150996 124.197943 80.123057 123.604945 82.081328 C 123.025738 84.039599 122.336206 85.956498 121.55014 87.832026 C 120.777864 89.721343 119.895263 91.569289 118.943709 93.362072 C 117.978364 95.168646 116.930275 96.906267 115.799443 98.602516 C 114.66861 100.298765 113.455034 101.939851 112.158714 103.511984 C 110.862394 105.097908 109.49712 106.601087 108.049103 108.049105 C 106.601086 109.483331 105.097906 110.862395 103.525773 112.158715 C 101.939849 113.441245 100.298763 114.654821 98.602514 115.799445 C 96.906265 116.930277 95.168645 117.978366 93.362071 118.943711 C 91.569287 119.895265 89.721342 120.764075 87.832024 121.550142 C 85.956497 122.336208 84.039598 123.01195 82.081327 123.604947 C 80.136846 124.197945 78.150994 124.694408 76.151351 125.094336 C 74.151708 125.494265 72.138275 125.797659 70.111051 125.990728 C 68.070036 126.197588 66.042812 126.294122 64.001797 126.294122 C 61.960782 126.294122 59.919767 126.197588 57.892543 125.990728 C 55.865319 125.797659 53.851885 125.494265 51.852243 125.094336 C 49.8526 124.694408 47.866747 124.197945 45.922267 123.604947 C 43.963996 123.01195 42.047097 122.336208 40.157779 121.550142 C 38.282252 120.764075 36.434306 119.895265 34.641523 118.943711 C 32.834949 117.978366 31.083538 116.930277 29.387289 115.799445 C 27.69104 114.654821 26.063745 113.441245 24.477821 112.158715 C 22.905688 110.862395 21.388718 109.483331 19.954491 108.049105 C 18.506474 106.601087 17.1412 105.097908 15.84488 103.511984 C 14.54856 101.939851 13.334984 100.298765 12.204151 98.602516 C 11.073318 96.906267 10.02523 95.168646 9.059885 93.362072 C 8.09454 91.569289 7.22573 89.721343 6.453454 87.832026 C 5.667387 85.956498 4.977855 84.039599 4.384858 82.081328 C 3.79186 80.123057 3.295397 78.150996 2.909259 76.151353 C 2.509331 74.15171 2.205937 72.138277 1.999077 70.111052 C 1.806008 68.070038 1.709474 66.042813 1.709474 64.001799 C 1.709474 61.960784 1.806008 59.919769 1.999077 57.892545 C 2.205937 55.865321 2.509331 53.851887 2.909259 51.852244 C 3.295397 49.838811 3.79186 47.866749 4.384858 45.922269 C 4.977855 43.963998 5.667387 42.047099 6.453454 40.157781 C 7.22573 38.268463 8.09454 36.434308 9.059885 34.627734 C 10.02523 32.834951 11.073318 31.08354 12.204151 29.387291 C 13.334984 27.691042 14.54856 26.063747 15.84488 24.477823 C 17.1412 22.90569 18.506474 21.388719 19.954491 19.954493 C 21.388718 18.506475 22.905688 17.141202 24.477821 15.844882 C 26.063745 14.548562 27.69104 13.334985 29.387289 12.204153 C 31.083538 11.07332 32.834949 10.025232 34.641523 9.059887 C 36.434306 8.094542 38.282252 7.225732 40.157779 6.453456 C 42.047097 5.667389 43.963996 4.977857 45.922267 4.38486 C 47.866747 3.791862 49.8526 3.295399 51.852243 2.89547 C 53.851885 2.509332 55.865319 2.205938 57.892543 1.999079 C 59.919767 1.80601 61.960782 1.709475 64.001797 1.709475 C 66.042812 1.709475 68.070036 1.80601 70.111051 1.999079 C 72.138275 2.205938 74.151708 2.509332 76.151351 2.89547 C 78.150994 3.295399 80.136846 3.791862 82.081327 4.38486 C 84.039598 4.977857 85.956497 5.667389 87.832024 6.453456 C 89.721342 7.225732 91.569287 8.094542 93.362071 9.059887 C 95.168645 10.025232 96.906265 11.07332 98.602514 12.204153 C 100.298763 13.334985 101.939849 14.548562 103.525773 15.844882 C 105.097906 17.141202 106.601086 18.506475 108.049103 19.954493 C 109.49712 21.388719 110.862394 22.90569 112.158714 24.477823 C 113.455034 26.063747 114.66861 27.691042 115.799443 29.387291 C 116.930275 31.08354 117.978364 32.834951 118.943709 34.627734 C 119.895263 36.434308 120.777864 38.268463 121.55014 40.157781 C 122.336206 42.047099 123.025738 43.963998 123.604945 45.922269 C 124.197943 47.866749 124.694406 49.838811 125.094335 51.852244 C 125.494263 53.851887 125.797657 55.865321 125.990726 57.892545 C 126.197586 59.919769 126.29412 61.960784 126.29412 64.001799 Z M 126.29412 64.001799 " transform="matrix(0.283254,0,0,0.283254,0.476723,0.476722)"/>
</g>
<path style="fill:none;stroke-width:2;stroke-linecap:round;stroke-linejoin:round;stroke:rgb(19.999695%,19.999695%,19.999695%);stroke-opacity:1;stroke-miterlimit:10;" d="M 62.99508 83.763787 C 60.264533 83.763787 58.002868 81.557284 58.002868 78.826737 L 58.002868 69.780077 C 58.002868 67.04953 60.747206 64.829237 63.477753 64.829237 C 70.497189 64.829237 76.482327 59.119912 76.482327 52.086685 C 76.482327 45.067249 70.897117 39.344133 63.863891 39.344133 C 56.844454 39.344133 51.190292 45.067249 51.190292 52.086685 C 51.190292 54.817232 49.011371 57.037525 46.280824 57.037525 C 43.550277 57.037525 41.357565 54.817232 41.357565 52.086685 C 41.357565 39.606156 51.507477 29.456244 63.988006 29.456244 C 76.468536 29.456244 86.149566 39.606156 86.149566 52.086685 C 86.149566 62.870966 79.006014 71.917626 68.001083 74.179291 L 68.001083 78.826737 C 68.001083 81.557284 65.725627 83.763787 62.99508 83.763787 Z M 62.99508 83.763787 " transform="matrix(0.283254,0,0,0.283254,0.476723,0.476722)"/>
<path style="fill:none;stroke-width:2;stroke-linecap:round;stroke-linejoin:round;stroke:rgb(19.999695%,19.999695%,19.999695%);stroke-opacity:1;stroke-miterlimit:10;" d="M 64.056959 99.595442 C 62.760639 99.595442 61.47811 99.057607 60.554137 98.133634 C 59.643954 97.223452 59.11991 95.954713 59.11991 94.644602 C 59.11991 93.334491 59.643954 92.065752 60.554137 91.141779 C 61.47811 90.217806 62.760639 89.693762 64.056959 89.693762 C 65.35328 89.693762 66.635809 90.217806 67.545992 91.141779 C 68.469964 92.065752 69.007799 93.334491 69.007799 94.644602 C 69.007799 95.940922 68.469964 97.209661 67.545992 98.133634 C 66.635809 99.057607 65.35328 99.595442 64.056959 99.595442 Z M 64.056959 99.595442 " transform="matrix(0.283254,0,0,0.283254,0.476723,0.476722)"/>
</g>
</svg>
