<svg xmlns="http://www.w3.org/2000/svg" xmlns:xlink="http://www.w3.org/1999/xlink" width="50" height="50" version="1.2" viewBox="0 0 37.5 37.5"><defs><clipPath id="clip1"><path d="M 1 1 L 36.898438 1 L 36.898438 36.898438 L 1 36.898438 Z M 1 1"/></clipPath><clipPath id="clip2"><path d="M 0.898438 0.898438 L 36.898438 0.898438 L 36.898438 36.898438 L 0.898438 36.898438 Z M 0.898438 0.898438"/></clipPath></defs><g id="surface1"><g clip-path="url(#clip1)" clip-rule="nonzero"><path style="stroke:none;fill-rule:nonzero;fill:#54b265;fill-opacity:1" d="M 36.917969 19.054688 C 36.917969 19.640625 36.890625 20.222656 36.832031 20.804688 C 36.777344 21.386719 36.691406 21.964844 36.574219 22.539062 C 36.460938 23.113281 36.320312 23.679688 36.148438 24.238281 C 35.980469 24.800781 35.78125 25.351562 35.558594 25.890625 C 35.335938 26.429688 35.085938 26.960938 34.808594 27.476562 C 34.535156 27.992188 34.234375 28.492188 33.90625 28.980469 C 33.582031 29.464844 33.234375 29.933594 32.863281 30.386719 C 32.492188 30.839844 32.101562 31.273438 31.6875 31.6875 C 31.273438 32.101562 30.839844 32.492188 30.386719 32.863281 C 29.933594 33.234375 29.464844 33.582031 28.980469 33.90625 C 28.492188 34.234375 27.992188 34.535156 27.476562 34.808594 C 26.960938 35.085938 26.429688 35.335938 25.890625 35.558594 C 25.351562 35.78125 24.800781 35.980469 24.238281 36.148438 C 23.679688 36.320312 23.113281 36.460938 22.539062 36.574219 C 21.964844 36.691406 21.386719 36.777344 20.804688 36.832031 C 20.222656 36.890625 19.640625 36.917969 19.054688 36.917969 C 18.46875 36.917969 17.886719 36.890625 17.300781 36.832031 C 16.71875 36.777344 16.140625 36.691406 15.566406 36.574219 C 14.996094 36.460938 14.425781 36.320312 13.867188 36.148438 C 13.308594 35.980469 12.757812 35.78125 12.21875 35.558594 C 11.675781 35.335938 11.148438 35.085938 10.632812 34.808594 C 10.117188 34.535156 9.613281 34.234375 9.128906 33.90625 C 8.640625 33.582031 8.171875 33.234375 7.71875 32.863281 C 7.269531 32.492188 6.835938 32.101562 6.421875 31.6875 C 6.007812 31.273438 5.613281 30.839844 5.242188 30.386719 C 4.871094 29.933594 4.523438 29.464844 4.199219 28.980469 C 3.875 28.492188 3.574219 27.992188 3.296875 27.476562 C 3.023438 26.960938 2.773438 26.429688 2.546875 25.890625 C 2.324219 25.351562 2.128906 24.800781 1.957031 24.238281 C 1.789062 23.679688 1.644531 23.113281 1.53125 22.539062 C 1.417969 21.964844 1.332031 21.386719 1.273438 20.804688 C 1.21875 20.222656 1.1875 19.640625 1.1875 19.054688 C 1.1875 18.46875 1.21875 17.886719 1.273438 17.300781 C 1.332031 16.71875 1.417969 16.140625 1.53125 15.566406 C 1.644531 14.996094 1.789062 14.425781 1.957031 13.867188 C 2.128906 13.308594 2.324219 12.757812 2.546875 12.21875 C 2.773438 11.675781 3.023438 11.148438 3.296875 10.632812 C 3.574219 10.117188 3.875 9.613281 4.199219 9.128906 C 4.523438 8.640625 4.871094 8.171875 5.242188 7.71875 C 5.613281 7.269531 6.007812 6.835938 6.421875 6.421875 C 6.835938 6.007812 7.269531 5.613281 7.71875 5.242188 C 8.171875 4.871094 8.640625 4.523438 9.128906 4.199219 C 9.613281 3.875 10.117188 3.574219 10.632812 3.296875 C 11.148438 3.023438 11.675781 2.773438 12.21875 2.546875 C 12.757812 2.324219 13.308594 2.128906 13.867188 1.957031 C 14.425781 1.789062 14.996094 1.644531 15.566406 1.53125 C 16.140625 1.417969 16.71875 1.332031 17.300781 1.273438 C 17.886719 1.21875 18.46875 1.1875 19.054688 1.1875 C 19.640625 1.1875 20.222656 1.21875 20.804688 1.273438 C 21.386719 1.332031 21.964844 1.417969 22.539062 1.53125 C 23.113281 1.644531 23.679688 1.789062 24.238281 1.957031 C 24.800781 2.128906 25.351562 2.324219 25.890625 2.546875 C 26.429688 2.773438 26.960938 3.023438 27.476562 3.296875 C 27.992188 3.574219 28.492188 3.875 28.980469 4.199219 C 29.464844 4.523438 29.933594 4.871094 30.386719 5.242188 C 30.839844 5.613281 31.273438 6.007812 31.6875 6.421875 C 32.101562 6.835938 32.492188 7.269531 32.863281 7.71875 C 33.234375 8.171875 33.582031 8.640625 33.90625 9.128906 C 34.234375 9.613281 34.535156 10.117188 34.808594 10.632812 C 35.085938 11.148438 35.335938 11.675781 35.558594 12.21875 C 35.78125 12.757812 35.980469 13.308594 36.148438 13.867188 C 36.320312 14.425781 36.460938 14.996094 36.574219 15.566406 C 36.691406 16.140625 36.777344 16.71875 36.832031 17.300781 C 36.890625 17.886719 36.917969 18.46875 36.917969 19.054688 Z M 36.917969 19.054688"/></g><path style="stroke:none;fill-rule:nonzero;fill:#f4efef;fill-opacity:1" d="M 27.625 15.273438 L 26.808594 14.457031 C 26.480469 14.128906 25.949219 14.128906 25.625 14.457031 L 17.503906 22.578125 L 12.519531 17.59375 C 12.195312 17.265625 11.660156 17.265625 11.335938 17.59375 L 10.519531 18.410156 C 10.191406 18.734375 10.191406 19.269531 10.519531 19.59375 L 16.910156 25.988281 C 17.238281 26.3125 17.769531 26.3125 18.097656 25.988281 L 18.101562 25.980469 L 27.625 16.457031 C 27.949219 16.132812 27.949219 15.597656 27.625 15.273438 Z M 27.625 15.273438"/><g clip-path="url(#clip2)" clip-rule="nonzero"><path style="fill:none;stroke-width:2;stroke-linecap:round;stroke-linejoin:round;stroke:#333;stroke-opacity:1;stroke-miterlimit:10" d="M 126.291199 64.003653 C 126.291199 66.046761 126.195854 68.076248 125.991544 70.105736 C 125.800854 72.135223 125.501198 74.151089 125.092576 76.153335 C 124.697575 78.15558 124.207229 80.130585 123.607918 82.078348 C 123.022227 84.039731 122.32757 85.960252 121.551189 87.839912 C 120.774808 89.719571 119.903082 91.571989 118.936011 93.369924 C 117.982561 95.167858 116.933766 96.91131 115.789625 98.6139 C 114.659105 100.302869 113.446861 101.937356 112.152893 103.517359 C 110.858925 105.097363 109.496853 106.609262 108.053057 108.053059 C 106.609261 109.496855 105.097361 110.858927 103.517357 112.152895 C 101.937354 113.446863 100.302868 114.659107 98.613899 115.789627 C 96.911309 116.933767 95.167857 117.982563 93.369922 118.936013 C 91.571987 119.903084 89.719569 120.77481 87.83991 121.551191 C 85.960251 122.327572 84.039729 123.022229 82.078346 123.60792 C 80.130583 124.207231 78.155579 124.697577 76.153333 125.092578 C 74.151087 125.501199 72.135221 125.800855 70.105734 125.991545 C 68.076247 126.195856 66.04676 126.291201 64.003652 126.291201 C 61.960544 126.291201 59.931057 126.195856 57.887949 125.991545 C 55.858462 125.800855 53.842595 125.501199 51.84035 125.092578 C 49.851725 124.697577 47.8631 124.207231 45.915337 123.60792 C 43.967574 123.022229 42.047053 122.327572 40.167394 121.551191 C 38.274114 120.77481 36.435317 119.903084 34.637382 118.936013 C 32.839447 117.982563 31.082374 116.933767 29.393405 115.789627 C 27.690815 114.659107 26.056329 113.446863 24.476325 112.152895 C 22.909943 110.858927 21.398043 109.496855 19.954247 108.053059 C 18.510451 106.609262 17.134758 105.097363 15.84079 103.517359 C 14.546821 101.937356 13.334577 100.302869 12.204058 98.6139 C 11.073538 96.91131 10.024743 95.167858 9.057672 93.369924 C 8.104221 91.571989 7.232495 89.719571 6.442494 87.839912 C 5.666113 85.960252 4.985077 84.039731 4.385765 82.078348 C 3.800074 80.130585 3.296107 78.15558 2.901107 76.153335 C 2.506106 74.151089 2.20645 72.135223 2.002139 70.105736 C 1.811449 68.076248 1.702483 66.046761 1.702483 64.003653 C 1.702483 61.960546 1.811449 59.931059 2.002139 57.887951 C 2.20645 55.858464 2.506106 53.842597 2.901107 51.840351 C 3.296107 49.851727 3.800074 47.863102 4.385765 45.915339 C 4.985077 43.967576 5.666113 42.047055 6.442494 40.167395 C 7.232495 38.274115 8.104221 36.435318 9.057672 34.637383 C 10.024743 32.839449 11.073538 31.082376 12.204058 29.393407 C 13.334577 27.690817 14.546821 26.056331 15.84079 24.476327 C 17.134758 22.909944 18.510451 21.398045 19.954247 19.954248 C 21.398043 18.510452 22.909943 17.13476 24.476325 15.840791 C 26.056329 14.546823 27.690815 13.334579 29.393405 12.204059 C 31.082374 11.07354 32.839447 10.024744 34.637382 9.057673 C 36.435317 8.104223 38.274114 7.232497 40.167394 6.442495 C 42.047053 5.666114 43.967574 4.985078 45.915337 4.385767 C 47.8631 3.800076 49.851725 3.296109 51.84035 2.901108 C 53.842595 2.506108 55.858462 2.206452 57.887949 2.002141 C 59.931057 1.811451 61.960544 1.702485 64.003652 1.702485 C 66.04676 1.702485 68.076247 1.811451 70.105734 2.002141 C 72.135221 2.206452 74.151087 2.506108 76.153333 2.901108 C 78.155579 3.296109 80.130583 3.800076 82.078346 4.385767 C 84.039729 4.985078 85.960251 5.666114 87.83991 6.442495 C 89.719569 7.232497 91.571987 8.104223 93.369922 9.057673 C 95.167857 10.024744 96.911309 11.07354 98.613899 12.204059 C 100.302868 13.334579 101.937354 14.546823 103.517357 15.840791 C 105.097361 17.13476 106.609261 18.510452 108.053057 19.954248 C 109.496853 21.398045 110.858925 22.909944 112.152893 24.476327 C 113.446861 26.056331 114.659105 27.690817 115.789625 29.393407 C 116.933766 31.082376 117.982561 32.839449 118.936011 34.637383 C 119.903082 36.435318 120.774808 38.274115 121.551189 40.167395 C 122.32757 42.047055 123.022227 43.967576 123.607918 45.915339 C 124.207229 47.863102 124.697575 49.851727 125.092576 51.840351 C 125.501198 53.842597 125.800854 55.858464 125.991544 57.887951 C 126.195854 59.931059 126.291199 61.960546 126.291199 64.003653 Z M 126.291199 64.003653" transform="matrix(0.286787,0,0,0.286787,0.699249,0.699249)"/></g><path style="fill:none;stroke-width:2;stroke-linecap:round;stroke-linejoin:round;stroke:#333;stroke-opacity:1;stroke-miterlimit:10" d="M 93.887509 50.818798 L 91.040779 47.972067 C 89.896638 46.827927 88.044221 46.827927 86.913701 47.972067 L 58.596226 76.289542 L 41.216189 58.909505 C 40.085669 57.765364 38.219631 57.765364 37.089111 58.909505 L 34.242381 61.756235 C 33.09824 62.886755 33.09824 64.752793 34.242381 65.883313 L 56.525877 88.18043 C 57.670017 89.310949 59.522435 89.310949 60.666576 88.18043 L 60.680196 88.153188 L 93.887509 54.945875 C 95.018029 53.815356 95.018029 51.949317 93.887509 50.818798 Z M 93.887509 50.818798" transform="matrix(0.286787,0,0,0.286787,0.699249,0.699249)"/></g></svg>