<svg xmlns="http://www.w3.org/2000/svg" xmlns:xlink="http://www.w3.org/1999/xlink" width="299.84" height="300" version="1.2" viewBox="0 0 224.88 225"><defs><clipPath id="clip1"><path d="M 18.078125 18.140625 L 206.976562 18.140625 L 206.976562 207 L 18.078125 207 Z M 18.078125 18.140625"/></clipPath><clipPath id="clip2"><path d="M 18.078125 136 L 206.976562 136 L 206.976562 176 L 18.078125 176 Z M 18.078125 136"/></clipPath><clipPath id="clip3"><path d="M 117 136 L 206.976562 136 L 206.976562 156 L 117 156 Z M 117 136"/></clipPath></defs><g id="surface1"><g clip-path="url(#clip1)" clip-rule="nonzero"><path style="stroke:none;fill-rule:nonzero;fill:#000;fill-opacity:1" d="M 195.398438 206.832031 L 30.632812 206.832031 C 24.144531 206.832031 18.863281 201.554688 18.863281 195.066406 L 18.863281 30.300781 C 18.863281 23.8125 24.144531 18.53125 30.632812 18.53125 L 195.398438 18.53125 C 201.886719 18.53125 207.164062 23.8125 207.164062 30.300781 L 207.164062 195.066406 C 207.164062 201.554688 201.886719 206.832031 195.398438 206.832031 Z M 30.632812 26.378906 C 28.46875 26.378906 26.710938 28.144531 26.710938 30.300781 L 26.710938 195.066406 C 26.710938 197.222656 28.46875 198.988281 30.632812 198.988281 L 195.398438 198.988281 C 197.5625 198.988281 199.320312 197.222656 199.320312 195.066406 L 199.320312 30.300781 C 199.320312 28.144531 197.5625 26.378906 195.398438 26.378906 Z M 30.632812 26.378906"/></g><g clip-path="url(#clip2)" clip-rule="nonzero"><path style="stroke:none;fill-rule:nonzero;fill:#000;fill-opacity:1" d="M 203.242188 175.449219 C 173.914062 175.449219 148.707031 165.46875 126.453125 156.652344 C 109.40625 149.894531 94.679688 144.066406 81.632812 144.066406 C 52.113281 144.066406 25.601562 166.433594 25.335938 166.664062 C 23.6875 168.066406 21.21875 167.871094 19.804688 166.230469 C 18.402344 164.582031 18.589844 162.113281 20.238281 160.699219 C 21.398438 159.703125 49.171875 136.21875 81.632812 136.21875 C 96.175781 136.21875 111.546875 142.308594 129.351562 149.363281 C 150.933594 157.914062 175.414062 167.605469 203.242188 167.605469 C 205.410156 167.605469 207.164062 169.363281 207.164062 171.527344 C 207.164062 173.691406 205.410156 175.449219 203.242188 175.449219 Z M 203.242188 175.449219"/></g><g clip-path="url(#clip3)" clip-rule="nonzero"><path style="stroke:none;fill-rule:nonzero;fill:#000;fill-opacity:1" d="M 203.242188 155.679688 C 202.765625 155.679688 202.277344 155.59375 201.800781 155.402344 C 185.511719 148.984375 172.101562 144.066406 160.089844 144.066406 C 145.535156 144.066406 132.089844 149.464844 123.371094 153.984375 C 121.441406 154.996094 119.078125 154.226562 118.082031 152.3125 C 117.085938 150.390625 117.832031 148.019531 119.753906 147.023438 C 129.246094 142.097656 143.953125 136.21875 160.089844 136.21875 C 173.484375 136.21875 187.605469 141.375 204.6875 148.113281 C 206.703125 148.90625 207.691406 151.191406 206.898438 153.199219 C 206.285156 154.738281 204.804688 155.679688 203.242188 155.679688 Z M 203.242188 155.679688"/></g><path style="stroke:none;fill-rule:nonzero;fill:#000;fill-opacity:1" d="M 77.707031 89.144531 L 54.171875 89.144531 C 47.683594 89.144531 42.402344 83.863281 42.402344 77.375 C 42.402344 71.53125 46.683594 66.667969 52.28125 65.765625 C 54.945312 60.875 60.132812 57.761719 65.9375 57.761719 C 71.746094 57.761719 76.929688 60.875 79.597656 65.765625 C 85.191406 66.667969 89.476562 71.53125 89.476562 77.375 C 89.476562 83.863281 84.195312 89.144531 77.707031 89.144531 Z M 53.652344 73.335938 C 52.003906 73.453125 50.246094 75.21875 50.246094 77.375 C 50.246094 79.535156 52.003906 81.296875 54.171875 81.296875 L 77.707031 81.296875 C 79.875 81.296875 81.632812 79.535156 81.632812 77.375 C 81.632812 75.21875 79.875 73.453125 77.707031 73.453125 C 76.71875 73.773438 75.894531 73.625 74.960938 73.164062 C 74.027344 72.683594 73.589844 71.804688 73.265625 70.808594 C 72.261719 67.703125 69.320312 65.605469 65.9375 65.605469 C 62.558594 65.605469 59.617188 67.703125 58.601562 70.808594 C 58.289062 71.804688 57.582031 72.636719 56.65625 73.101562 C 55.722656 73.578125 54.648438 73.664062 53.652344 73.335938 Z M 53.652344 73.335938"/></g></svg>